# Blender 5.1.2
# www.blender.org
mtllib yos_3d.mtl
o Torus
v 0.154408 0.126681 0.000000
v -0.016062 0.125935 0.076909
v -0.016062 0.127428 -0.076909
v -0.413826 0.761161 0.006156
v -0.413826 0.570071 0.081218
v -0.413826 0.571563 -0.072600
v -0.982059 0.126681 0.000000
v -0.811589 0.125935 0.076909
v -0.811589 0.127428 -0.076909
v -0.413826 -0.507798 -0.006156
v -0.413826 -0.318201 0.072600
v -0.413826 -0.316708 -0.081218
v -1.332781 0.900840 -0.070417
v -1.375745 0.881477 0.042540
v -1.289818 0.920202 0.042540
v -1.009473 0.320800 -0.000000
v -0.718341 1.026577 -0.085079
v -0.774141 1.064356 0.039607
v -0.662542 0.988797 0.039607
v -1.271846 -0.122775 0.000000
v 0.118642 -0.608131 -0.000000
v 0.287430 -0.584231 0.076909
v 0.287633 -0.585709 -0.076909
v 0.469425 1.278443 0.006156
v 0.469425 1.087353 0.081218
v 0.469425 1.088845 -0.072600
v -0.098809 0.643963 0.000000
v 0.071661 0.643217 0.076909
v 0.071661 0.644710 -0.076909
v 0.484016 -0.009570 -0.004617
v 0.640583 0.009625 0.073677
v 0.640684 0.009632 -0.080141
vn 0.3859 0.3373 0.8587
vn -0.7449 -0.6671 -0.0065
vn 0.3859 0.3539 -0.8520
vn -0.3859 0.3373 0.8587
vn 0.7449 -0.6671 -0.0065
vn -0.3859 0.3539 -0.8520
vn -0.3859 -0.3539 0.8520
vn 0.7449 0.6671 0.0065
vn -0.3859 -0.3373 -0.8587
vn 0.3859 -0.3539 0.8520
vn -0.7449 0.6671 0.0065
vn 0.3859 -0.3373 -0.8587
vn -0.7866 -0.4849 -0.3823
vn -0.4109 0.9117 -0.0000
vn 0.0264 -0.0585 0.9979
vn 0.8253 0.4133 -0.3848
vn -0.8086 0.3547 -0.4694
vn 0.5606 0.8281 -0.0000
vn -0.0176 -0.0260 0.9995
vn 0.7795 -0.4104 -0.4732
vn -0.3854 -0.3501 0.8538
vn 0.7444 0.6677 0.0035
vn -0.3810 -0.3353 -0.8616
vn -0.4434 0.2728 0.8538
vn 0.8598 -0.5106 0.0033
vn -0.4364 0.2570 -0.8623
vn 1.0000 -0.0000 -0.0000
vn 0.1359 -0.9907 0.0097
vt 0.500000 0.666667
vt 0.750000 0.666667
vt 0.750000 1.000000
vt 0.500000 1.000000
vt 0.500000 0.000000
vt 0.750000 0.000000
vt 0.750000 0.333333
vt 0.500000 0.333333
vt 1.000000 0.666667
vt 1.000000 1.000000
vt 1.000000 0.000000
vt 1.000000 0.333333
vt 0.000000 0.666667
vt 0.250000 0.666667
vt 0.250000 1.000000
vt 0.000000 1.000000
vt 0.000000 0.000000
vt 0.250000 0.000000
vt 0.250000 0.333333
vt 0.000000 0.333333
vt 0.250000 0.490000
vt 0.250000 0.250000
vt 0.457846 0.130000
vt 0.750000 0.490000
vt 0.957846 0.130000
vt 0.542154 0.130000
vt 0.042154 0.130000
vt 0.375000 0.666667
vt 0.375000 0.000000
vt 0.375000 0.333333
s 0
usemtl Material.001
f 1/1/1 4/2/1 5/3/1 2/4/1
f 2/5/2 5/6/2 6/7/2 3/8/2
f 3/8/3 6/7/3 4/2/3 1/1/3
f 4/2/4 7/9/4 8/10/4 5/3/4
f 5/6/5 8/11/5 9/12/5 6/7/5
f 6/7/6 9/12/6 7/9/6 4/2/6
f 7/13/7 10/14/7 11/15/7 8/16/7
f 8/17/8 11/18/8 12/19/8 9/20/8
f 9/20/9 12/19/9 10/14/9 7/13/9
f 10/14/10 1/1/10 2/4/10 11/15/10
f 11/18/11 2/5/11 3/8/11 12/19/11
f 12/19/12 3/8/12 1/1/12 10/14/12
usemtl Material
f 13/21/13 16/22/13 14/23/13
f 13/24/14 14/25/14 15/26/14
f 14/23/15 16/22/15 15/27/15
f 15/27/16 16/22/16 13/21/16
f 17/21/17 20/22/17 18/23/17
f 17/24/18 18/25/18 19/26/18
f 18/23/19 20/22/19 19/27/19
f 19/27/20 20/22/20 17/21/20
f 24/2/4 27/9/4 28/10/4 25/3/4
f 25/6/5 28/11/5 29/12/5 26/7/5
f 26/7/6 29/12/6 27/9/6 24/2/6
f 27/13/21 30/14/21 31/15/21 28/16/21
f 28/17/22 31/18/22 32/19/22 29/20/22
f 29/20/23 32/19/23 30/14/23 27/13/23
f 30/28/24 21/1/24 22/4/24 31/15/24
f 31/29/25 22/5/25 23/8/25 32/30/25
f 32/30/26 23/8/26 21/1/26 30/14/26
f 25/6/27 26/7/27 24/2/27
f 22/5/28 21/1/28 23/8/28
